<?xml version="1.0" encoding="utf-8"?>
<!-- Generator: Adobe Illustrator 16.2.1, SVG Export Plug-In . SVG Version: 6.00 Build 0)  -->
<!DOCTYPE svg PUBLIC "-//W3C//DTD SVG 1.1//EN" "http://www.w3.org/Graphics/SVG/1.1/DTD/svg11.dtd">
<svg version="1.1" id="Layer_1" xmlns="http://www.w3.org/2000/svg" xmlns:xlink="http://www.w3.org/1999/xlink" x="0px" y="0px"
	 width="524px" height="525px" viewBox="0 0 524 525" enable-background="new 0 0 524 525" xml:space="preserve">
<g>
	<defs>
		<rect id="SVGID_1_" x="-358" y="-142.008" width="1241.008" height="809.008"/>
	</defs>
	<clipPath id="SVGID_2_">
		<use xlink:href="#SVGID_1_"  overflow="visible"/>
	</clipPath>
	<path clip-path="url(#SVGID_2_)" fill="#FFFFFF" d="M262.504,21.408c-132.937,0-241.087,108.151-241.087,241.088
		c0,132.938,108.151,241.091,241.087,241.091c132.936,0,241.087-108.153,241.087-241.091
		C503.591,129.559,395.439,21.408,262.504,21.408 M262.504,98.724c90.304,0,163.77,73.468,163.77,163.772
		c0,90.306-73.466,163.775-163.77,163.775S98.732,352.802,98.732,262.496C98.732,172.192,172.2,98.724,262.504,98.724
		 M262.504,490.762c-125.867,0-228.266-102.399-228.266-228.265l27.476,14.76l25.943-14.76c0,96.41,78.436,174.846,174.847,174.846
		c96.411,0,174.847-78.437,174.847-174.846l27.464,13.332l25.955-13.332C490.77,388.362,388.37,490.762,262.504,490.762"/>
	<path clip-path="url(#SVGID_2_)" fill="#FFFFFF" d="M262.504,2.657c-143.275,0-259.839,116.564-259.839,259.84
		c0,143.275,116.564,259.837,259.839,259.837s259.838-116.562,259.838-259.837C522.342,119.221,405.779,2.657,262.504,2.657
		 M262.504,509.682c-136.299,0-247.188-110.887-247.188-247.185c0-136.3,110.888-247.188,247.188-247.188
		c136.299,0,247.187,110.888,247.187,247.188C509.69,398.795,398.803,509.682,262.504,509.682"/>
	<polygon clip-path="url(#SVGID_2_)" fill="#FFFFFF" points="461.879,292.721 463.294,297.717 468.215,299.387 463.897,302.276 
		463.831,307.471 459.748,304.26 454.787,305.801 456.58,300.926 453.58,296.684 458.772,296.883 	"/>
	<polygon clip-path="url(#SVGID_2_)" fill="#FFFFFF" points="63.725,292.721 62.31,297.717 57.389,299.387 61.707,302.276 
		61.773,307.471 65.856,304.26 70.817,305.801 69.024,300.926 72.024,296.684 66.832,296.883 	"/>
	<path clip-path="url(#SVGID_2_)" fill="#FFFFFF" d="M332.528,342.188l-0.032-0.042c-0.099-0.156-0.22-0.295-0.336-0.44
		l-96.061-126.152c0.976-0.738,1.79-1.308,2.446-1.72c1.062-0.818,1.721-1.883,1.968-3.188c0.165-1.308-0.125-2.496-0.862-3.557
		l-23.184-30.425c-0.983-1.23-2.206-1.836-3.678-1.836c-0.906,0-2.747,0.936-5.526,2.82l-4.291-5.527l-11.043,8.345l3.191,4.173
		c-12.348,5.965-24.823,9.731-37.418,11.284c-2.702,0.411-4.049,1.966-4.049,4.661c0.082,3.028,0.776,6.751,2.084,11.168
		c2.46,8.587,6.628,16.763,12.513,24.531c5.897,7.771,12.562,14.068,19.994,18.894c3.848,2.452,7.164,4.133,9.943,5.027
		c0.493,0.174,0.976,0.247,1.471,0.247c2.038,0,3.476-0.98,4.295-2.947c4.741-11.691,12.022-22.569,21.838-32.629l95.09,124.848
		c0.087,0.136,0.193,0.256,0.293,0.388l0.316,0.417l0.02-0.015c1.271,1.436,3.105,2.359,5.176,2.359
		c3.837,0,6.942-3.109,6.942-6.944c0-1.379-0.414-2.655-1.106-3.732L332.528,342.188z M197.333,249.655
		c-8.022-4.173-15.261-10.49-21.715-18.951c-6.467-8.469-10.516-17.241-12.147-26.317c5.885-1.061,11.814-2.537,17.786-4.42
		c0.159,3.519,1.039,6.38,2.635,8.593c1.595,2.208,3.968,3.561,7.121,4.049c3.143,0.488,5.273,1.471,6.374,2.944
		c1.109,1.471,1.658,2.937,1.658,4.409c0,0.417-0.066,1.07-0.181,1.972c-0.123,0.898-0.184,1.592-0.184,2.083
		c0,1.635,0.483,3.271,1.47,4.909c1.385,2.289,3.475,3.96,6.258,5.028C202.807,239.102,199.781,244.341,197.333,249.655"/>
	<path clip-path="url(#SVGID_2_)" fill="#FFFFFF" d="M367.305,195.923c-12.596-1.554-25.071-5.32-37.418-11.284l3.191-4.174
		l-11.047-8.345l-4.288,5.527c-2.781-1.884-4.62-2.82-5.524-2.82c-1.474,0-2.697,0.606-3.682,1.837l-23.179,30.425
		c-0.738,1.06-1.029,2.249-0.863,3.556c0.246,1.305,0.905,2.371,1.966,3.188c0.657,0.412,1.472,0.983,2.446,1.72l-23.449,30.793
		l8.717,11.408l25.041-32.879c9.816,10.06,17.096,20.937,21.837,32.628c0.818,1.967,2.258,2.948,4.296,2.948
		c0.492,0,0.975-0.074,1.47-0.248c2.782-0.894,6.093-2.575,9.944-5.024c7.431-4.828,14.097-11.125,19.992-18.897
		c5.884-7.768,10.056-15.944,12.513-24.531c1.309-4.417,2.004-8.14,2.086-11.168C371.354,197.888,370.005,196.333,367.305,195.923
		 M349.39,230.704c-6.455,8.463-13.695,14.781-21.716,18.951c-2.451-5.311-5.475-10.551-9.074-15.701
		c2.782-1.067,4.869-2.739,6.255-5.028c0.986-1.638,1.469-3.274,1.469-4.909c0-0.491-0.058-1.184-0.183-2.083
		c-0.114-0.901-0.181-1.555-0.181-1.972c0-1.472,0.548-2.938,1.656-4.409c1.103-1.473,3.232-2.456,6.376-2.944
		c3.153-0.488,5.525-1.841,7.121-4.049c1.596-2.213,2.475-5.074,2.633-8.593c5.979,1.883,11.903,3.36,17.789,4.42
		C359.901,213.463,355.853,222.236,349.39,230.704"/>
	<path clip-path="url(#SVGID_2_)" fill="#FFFFFF" d="M192.844,341.705c-0.113,0.146-0.234,0.284-0.335,0.44l-0.032,0.042
		l0.007,0.007c-0.692,1.078-1.105,2.354-1.105,3.732c0,3.835,3.106,6.944,6.942,6.944c2.069,0,3.906-0.925,5.176-2.359l0.017,0.015
		l0.319-0.417c0.098-0.132,0.204-0.251,0.293-0.388l55.468-72.824l-8.715-11.403L192.844,341.705z"/>
</g>
<text transform="matrix(0.4837 -0.8753 0.8753 0.4837 97.8213 190.3496)" font-family="'Sullivan-Regular'" font-size="76">T</text>
<text transform="matrix(0.6126 -0.7904 0.7904 0.6126 116.7461 158.3447)" font-family="'Sullivan-Regular'" font-size="76">I</text>
<text transform="matrix(0.7376 -0.6752 0.6752 0.7376 127.3262 143.5645)" font-family="'Sullivan-Regular'" font-size="76">M</text>
<text transform="matrix(0.8629 -0.5053 0.5053 0.8629 159.4561 115.375)" font-family="'Sullivan-Regular'" font-size="76">B</text>
<text transform="matrix(0.9439 -0.3302 0.3302 0.9439 189.458 98.3623)" font-family="'Sullivan-Regular'" font-size="76">E</text>
<text transform="matrix(0.9886 -0.1507 0.1507 0.9886 220.4746 87.8101)" font-family="'Sullivan-Regular'" font-size="76">R</text>
<text transform="matrix(0.9999 -0.0162 0.0162 0.9999 253.9302 83.6128)" fill="#FFFFFF" font-family="'Sullivan-Regular'" font-size="76"> </text>
<text transform="matrix(0.9912 0.1324 -0.1324 0.9912 271.8047 83.1299)" font-family="'Sullivan-Regular'" font-size="76">H</text>
<text transform="matrix(0.9473 0.3205 -0.3205 0.9473 305.9316 88.1729)" font-family="'Sullivan-Regular'" font-size="76">O</text>
<text transform="matrix(0.868 0.4965 -0.4965 0.868 338.4531 99.6904)" font-family="'Sullivan-Regular'" font-size="76">C</text>
<text transform="matrix(0.7555 0.6552 -0.6552 0.7555 368.1523 117.1797)" font-family="'Sullivan-Regular'" font-size="76">K</text>
<text transform="matrix(0.6259 0.7799 -0.7799 0.6259 392.9473 139.041)" font-family="'Sullivan-Regular'" font-size="76">E</text>
<text transform="matrix(0.474 0.8805 -0.8805 0.474 412.8193 164.0186)" font-family="'Sullivan-Regular'" font-size="76">Y</text>
<text transform="matrix(0.8652 0.5014 -0.5014 0.8652 151.5952 448.1182)" font-family="'BebasNeue'" font-size="39.8594"> </text>
<text transform="matrix(0.9984 -0.0563 0.0563 0.9984 271.7969 478.4951)" font-family="'BebasNeue'" font-size="39.8594"> </text>
<text transform="matrix(0.8791 -0.4766 0.4766 0.8791 362.6719 454.1416)" font-family="'BebasNeue'" font-size="39.8594"> </text>
<text transform="matrix(1 0 0 1 862.4004 398.1895)"><tspan x="0" y="0" font-family="'BebasNeue'" font-size="17" letter-spacing="2">2</tspan><tspan x="11.424" y="0" font-family="'BebasNeue'" font-size="17">0</tspan></text>
<g>
	<defs>
		<rect id="SVGID_3_" x="-358" y="-142.008" width="1241.008" height="809.008"/>
	</defs>
	<clipPath id="SVGID_4_">
		<use xlink:href="#SVGID_3_"  overflow="visible"/>
	</clipPath>
	<path clip-path="url(#SVGID_4_)" fill="#010101" d="M1102.878,349.403c-132.938,0-241.089,108.151-241.089,241.088
		c0,132.938,108.151,241.091,241.089,241.091c132.935,0,241.086-108.152,241.086-241.091
		C1343.964,457.555,1235.812,349.403,1102.878,349.403 M1102.878,426.719c90.303,0,163.769,73.469,163.769,163.772
		c0,90.306-73.466,163.775-163.769,163.775c-90.305,0-163.772-73.47-163.772-163.775
		C939.105,500.188,1012.573,426.719,1102.878,426.719 M1102.878,818.757c-125.867,0-228.267-102.398-228.267-228.265l27.477,14.76
		l25.942-14.76c0,96.41,78.437,174.846,174.848,174.846c96.41,0,174.846-78.436,174.846-174.846l27.464,13.331l25.955-13.331
		C1331.143,716.358,1228.743,818.757,1102.878,818.757"/>
	<path clip-path="url(#SVGID_4_)" fill="#010101" d="M1102.878,330.652c-143.276,0-259.841,116.563-259.841,259.84
		c0,143.274,116.564,259.837,259.841,259.837c143.274,0,259.837-116.562,259.837-259.837
		C1362.715,447.216,1246.152,330.652,1102.878,330.652 M1102.878,837.677c-136.301,0-247.188-110.887-247.188-247.185
		c0-136.3,110.888-247.188,247.188-247.188c136.298,0,247.186,110.889,247.186,247.188
		C1350.063,726.79,1239.176,837.677,1102.878,837.677"/>
	<g clip-path="url(#SVGID_4_)">
		
			<text transform="matrix(0.4837 -0.8753 0.8753 0.4837 938.1943 518.3457)" fill="#FFFFFF" font-family="'Sullivan-Regular'" font-size="76">T</text>
	</g>
	<g clip-path="url(#SVGID_4_)">
		
			<text transform="matrix(0.6126 -0.7904 0.7904 0.6126 957.1191 486.3398)" fill="#FFFFFF" font-family="'Sullivan-Regular'" font-size="76">I</text>
	</g>
	<g clip-path="url(#SVGID_4_)">
		
			<text transform="matrix(0.7376 -0.6752 0.6752 0.7376 967.6973 471.5605)" fill="#FFFFFF" font-family="'Sullivan-Regular'" font-size="76">M</text>
	</g>
	<g clip-path="url(#SVGID_4_)">
		
			<text transform="matrix(0.8629 -0.5053 0.5053 0.8629 999.8291 443.3711)" fill="#FFFFFF" font-family="'Sullivan-Regular'" font-size="76">B</text>
	</g>
	<g clip-path="url(#SVGID_4_)">
		
			<text transform="matrix(0.9439 -0.3302 0.3302 0.9439 1029.832 426.3574)" fill="#FFFFFF" font-family="'Sullivan-Regular'" font-size="76">E</text>
	</g>
	<g clip-path="url(#SVGID_4_)">
		
			<text transform="matrix(0.9886 -0.1507 0.1507 0.9886 1060.8477 415.8057)" fill="#FFFFFF" font-family="'Sullivan-Regular'" font-size="76">R</text>
	</g>
	<g clip-path="url(#SVGID_4_)">
		
			<text transform="matrix(0.9999 -0.0162 0.0162 0.9999 1094.3027 411.6074)" fill="#FFFFFF" font-family="'Sullivan-Regular'" font-size="76"> </text>
	</g>
	<g clip-path="url(#SVGID_4_)">
		
			<text transform="matrix(0.9912 0.1324 -0.1324 0.9912 1112.1787 411.125)" fill="#FFFFFF" font-family="'Sullivan-Regular'" font-size="76">H</text>
	</g>
	<g clip-path="url(#SVGID_4_)">
		
			<text transform="matrix(0.9473 0.3205 -0.3205 0.9473 1146.3047 416.168)" fill="#FFFFFF" font-family="'Sullivan-Regular'" font-size="76">O</text>
	</g>
	<g clip-path="url(#SVGID_4_)">
		
			<text transform="matrix(0.868 0.4965 -0.4965 0.868 1178.8252 427.6846)" fill="#FFFFFF" font-family="'Sullivan-Regular'" font-size="76">C</text>
	</g>
	<g clip-path="url(#SVGID_4_)">
		
			<text transform="matrix(0.7555 0.6552 -0.6552 0.7555 1208.5254 445.1748)" fill="#FFFFFF" font-family="'Sullivan-Regular'" font-size="76">K</text>
	</g>
	<g clip-path="url(#SVGID_4_)">
		
			<text transform="matrix(0.6259 0.7799 -0.7799 0.6259 1233.3203 467.0371)" fill="#FFFFFF" font-family="'Sullivan-Regular'" font-size="76">E</text>
	</g>
	<g clip-path="url(#SVGID_4_)">
		
			<text transform="matrix(0.474 0.8805 -0.8805 0.474 1253.1914 492.0146)" fill="#FFFFFF" font-family="'Sullivan-Regular'" font-size="76">Y</text>
	</g>
	<g clip-path="url(#SVGID_4_)">
		<text transform="matrix(0.5423 0.8402 -0.8402 0.5423 917.3984 701.8027)" font-family="'BebasNeue'" font-size="39.8595">f</text>
	</g>
	<g clip-path="url(#SVGID_4_)">
		<text transform="matrix(0.639 0.7692 -0.7692 0.639 931.4414 722.4346)" font-family="'BebasNeue'" font-size="39.8595">u</text>
	</g>
	<g clip-path="url(#SVGID_4_)">
		<text transform="matrix(0.7291 0.6844 -0.6844 0.7291 949.3457 742.8691)" font-family="'BebasNeue'" font-size="39.8594">c</text>
	</g>
	<g clip-path="url(#SVGID_4_)">
		<text transform="matrix(0.8091 0.5877 -0.5877 0.8091 969.2832 760.6572)" font-family="'BebasNeue'" font-size="39.8594">k</text>
	</g>
	<g clip-path="url(#SVGID_4_)">
		<text transform="matrix(0.8652 0.5014 -0.5014 0.8652 991.9688 776.1133)" font-family="'BebasNeue'" font-size="39.8594"> </text>
	</g>
	<g clip-path="url(#SVGID_4_)">
		<text transform="matrix(0.9116 0.4111 -0.4111 0.9116 1006.9072 784.4121)" font-family="'BebasNeue'" font-size="39.8594">y</text>
	</g>
	<g clip-path="url(#SVGID_4_)">
		<text transform="matrix(0.9553 0.2956 -0.2956 0.9553 1031.8867 794.8721)" font-family="'BebasNeue'" font-size="39.8594">e</text>
	</g>
	<g clip-path="url(#SVGID_4_)">
		<text transform="matrix(0.9847 0.1745 -0.1745 0.9847 1056.916 801.9277)" font-family="'BebasNeue'" font-size="39.8594">a</text>
	</g>
	<g clip-path="url(#SVGID_4_)">
		<text transform="matrix(0.9989 0.0463 -0.0463 0.9989 1084.2051 806.0371)" font-family="'BebasNeue'" font-size="39.8594">h</text>
	</g>
	<g clip-path="url(#SVGID_4_)">
		<text transform="matrix(0.9984 -0.0563 0.0563 0.9984 1112.1689 806.4902)" font-family="'BebasNeue'" font-size="39.8594"> </text>
	</g>
	<g clip-path="url(#SVGID_4_)">
		<text transform="matrix(0.9878 -0.156 0.156 0.9878 1129.1914 805.2197)" font-family="'BebasNeue'" font-size="39.8594">g</text>
	</g>
	<g clip-path="url(#SVGID_4_)">
		<text transform="matrix(0.9612 -0.2758 0.2758 0.9612 1155.5723 800.3301)" font-family="'BebasNeue'" font-size="39.8594">e</text>
	</g>
	<g clip-path="url(#SVGID_4_)">
		<text transform="matrix(0.9215 -0.3885 0.3885 0.9215 1180.2598 792.5312)" font-family="'BebasNeue'" font-size="39.8594">t</text>
	</g>
	<g clip-path="url(#SVGID_4_)">
		<text transform="matrix(0.8791 -0.4766 0.4766 0.8791 1203.0449 782.1367)" font-family="'BebasNeue'" font-size="39.8594"> </text>
	</g>
	<g clip-path="url(#SVGID_4_)">
		<text transform="matrix(0.8277 -0.5612 0.5612 0.8277 1217.8799 773.7275)" font-family="'BebasNeue'" font-size="39.8594">s</text>
	</g>
	<g clip-path="url(#SVGID_4_)">
		<text transform="matrix(0.7528 -0.6582 0.6582 0.7528 1239.1738 758.4863)" font-family="'BebasNeue'" font-size="39.8594">o</text>
	</g>
	<g clip-path="url(#SVGID_4_)">
		<text transform="matrix(0.6543 -0.7562 0.7562 0.6543 1259.3652 740.0293)" font-family="'BebasNeue'" font-size="39.8594">m</text>
	</g>
	<g clip-path="url(#SVGID_4_)">
		<text transform="matrix(0.5452 -0.8383 0.8383 0.5452 1280.2373 714.3418)" font-family="'BebasNeue'" font-size="39.8594">e</text>
	</g>
	<path clip-path="url(#SVGID_4_)" fill="#010101" d="M979.344-191.744c-132.938,0-241.088,108.151-241.088,241.088
		c0,132.938,108.15,241.091,241.088,241.091c132.935,0,241.086-108.153,241.086-241.091
		C1220.43-83.593,1112.278-191.744,979.344-191.744 M979.344-114.428c90.303,0,163.769,73.468,163.769,163.772
		c0,90.306-73.466,163.775-163.769,163.775c-90.305,0-163.772-73.469-163.772-163.775
		C815.571-40.96,889.039-114.428,979.344-114.428 M979.344,277.61c-125.867,0-228.267-102.399-228.267-228.265l27.477,14.76
		l25.942-14.76c0,96.411,78.437,174.846,174.848,174.846c96.41,0,174.846-78.435,174.846-174.846l27.464,13.331l25.955-13.331
		C1207.608,175.211,1105.209,277.61,979.344,277.61"/>
	<path clip-path="url(#SVGID_4_)" fill="#010101" d="M979.344-210.495c-143.276,0-259.84,116.564-259.84,259.84
		c0,143.275,116.563,259.836,259.84,259.836c143.274,0,259.837-116.562,259.837-259.836
		C1239.181-93.931,1122.618-210.495,979.344-210.495 M979.344,296.53c-136.301,0-247.188-110.887-247.188-247.185
		c0-136.3,110.888-247.188,247.188-247.188c136.298,0,247.186,110.888,247.186,247.188
		C1226.529,185.643,1115.642,296.53,979.344,296.53"/>
	<path clip-path="url(#SVGID_4_)" d="M1049.367,129.037l-0.032-0.042c-0.099-0.157-0.22-0.295-0.336-0.441L952.938,2.401
		c0.976-0.738,1.79-1.308,2.445-1.72c1.062-0.818,1.722-1.883,1.969-3.188c0.165-1.308-0.125-2.496-0.862-3.557l-23.184-30.425
		c-0.983-1.23-2.206-1.836-3.679-1.836c-0.905,0-2.747,0.936-5.525,2.82l-4.29-5.527l-11.044,8.345l3.19,4.174
		c-12.348,5.964-24.822,9.73-37.418,11.283c-2.702,0.411-4.049,1.966-4.049,4.661c0.082,3.028,0.776,6.751,2.084,11.168
		c2.46,8.587,6.628,16.763,12.513,24.531c5.897,7.771,12.562,14.068,19.994,18.894c3.849,2.452,7.164,4.133,9.943,5.027
		c0.493,0.174,0.976,0.247,1.471,0.247c2.038,0,3.476-0.98,4.295-2.947c4.741-11.691,12.022-22.569,21.838-32.629l95.091,124.848
		c0.086,0.136,0.192,0.256,0.293,0.387l0.315,0.417l0.021-0.014c1.271,1.435,3.104,2.359,5.175,2.359
		c3.837,0,6.942-3.109,6.942-6.944c0-1.379-0.414-2.655-1.106-3.733L1049.367,129.037z M914.172,36.503
		c-8.021-4.172-15.261-10.49-21.715-18.951c-6.467-8.468-10.516-17.241-12.146-26.317c5.885-1.061,11.813-2.537,17.785-4.42
		c0.159,3.519,1.039,6.38,2.636,8.593c1.596,2.208,3.968,3.561,7.122,4.049c3.142,0.488,5.271,1.471,6.373,2.944
		c1.108,1.471,1.657,2.937,1.657,4.409c0,0.417-0.065,1.07-0.181,1.972c-0.123,0.898-0.184,1.592-0.184,2.083
		c0,1.635,0.482,3.271,1.47,4.909c1.385,2.289,3.475,3.96,6.258,5.028C919.646,25.95,916.62,31.189,914.172,36.503"/>
</g>
<text transform="matrix(0.4837 -0.8753 0.8753 0.4837 814.6611 -22.8018)" fill="#FFFFFF" font-family="'Sullivan-Regular'" font-size="76">T</text>
<text transform="matrix(0.6126 -0.7904 0.7904 0.6126 833.5859 -54.8062)" fill="#FFFFFF" font-family="'Sullivan-Regular'" font-size="76">I</text>
<g>
	<defs>
		<rect id="SVGID_5_" x="-358" y="-142.008" width="1241.008" height="809.008"/>
	</defs>
	<clipPath id="SVGID_6_">
		<use xlink:href="#SVGID_5_"  overflow="visible"/>
	</clipPath>
	<g clip-path="url(#SVGID_6_)">
		
			<text transform="matrix(0.7376 -0.6752 0.6752 0.7376 844.165 -69.5869)" fill="#FFFFFF" font-family="'Sullivan-Regular'" font-size="76">M</text>
	</g>
	<g clip-path="url(#SVGID_6_)">
		
			<text transform="matrix(0.8629 -0.5053 0.5053 0.8629 876.2959 -97.7764)" fill="#FFFFFF" font-family="'Sullivan-Regular'" font-size="76">B</text>
	</g>
	<g clip-path="url(#SVGID_6_)">
		
			<text transform="matrix(0.9439 -0.3302 0.3302 0.9439 906.2979 -114.7891)" fill="#FFFFFF" font-family="'Sullivan-Regular'" font-size="76">E</text>
	</g>
	<g clip-path="url(#SVGID_6_)">
		
			<text transform="matrix(0.9886 -0.1507 0.1507 0.9886 937.3145 -125.3408)" fill="#FFFFFF" font-family="'Sullivan-Regular'" font-size="76">R</text>
	</g>
	<g clip-path="url(#SVGID_6_)">
		
			<text transform="matrix(0.9999 -0.0162 0.0162 0.9999 970.7695 -129.5381)" fill="#FFFFFF" font-family="'Sullivan-Regular'" font-size="76"> </text>
	</g>
	<g clip-path="url(#SVGID_6_)">
		
			<text transform="matrix(0.9912 0.1324 -0.1324 0.9912 988.6445 -130.0215)" fill="#FFFFFF" font-family="'Sullivan-Regular'" font-size="76">H</text>
	</g>
	<g clip-path="url(#SVGID_6_)">
		
			<text transform="matrix(0.9473 0.3205 -0.3205 0.9473 1022.7715 -124.9785)" fill="#FFFFFF" font-family="'Sullivan-Regular'" font-size="76">O</text>
	</g>
	<g clip-path="url(#SVGID_6_)">
		
			<text transform="matrix(0.868 0.4965 -0.4965 0.868 1055.291 -113.46)" fill="#FFFFFF" font-family="'Sullivan-Regular'" font-size="76">C</text>
	</g>
	<g clip-path="url(#SVGID_6_)">
		
			<text transform="matrix(0.7555 0.6552 -0.6552 0.7555 1084.9922 -95.9707)" fill="#FFFFFF" font-family="'Sullivan-Regular'" font-size="76">K</text>
	</g>
	<g clip-path="url(#SVGID_6_)">
		
			<text transform="matrix(0.6259 0.7799 -0.7799 0.6259 1109.7871 -74.1113)" fill="#FFFFFF" font-family="'Sullivan-Regular'" font-size="76">E</text>
	</g>
	<g clip-path="url(#SVGID_6_)">
		
			<text transform="matrix(0.474 0.8805 -0.8805 0.474 1129.6582 -49.1318)" fill="#FFFFFF" font-family="'Sullivan-Regular'" font-size="76">Y</text>
	</g>
</g>
<text transform="matrix(0.5423 0.8402 -0.8402 0.5423 793.8633 160.6553)" font-family="'BebasNeue'" font-size="39.8595">f</text>
<text transform="matrix(0.639 0.7692 -0.7692 0.639 807.9082 181.2881)" font-family="'BebasNeue'" font-size="39.8595">u</text>
<text transform="matrix(0.7291 0.6844 -0.6844 0.7291 825.8125 201.7246)" font-family="'BebasNeue'" font-size="39.8594">c</text>
<text transform="matrix(0.8091 0.5877 -0.5877 0.8091 845.75 219.5098)" font-family="'BebasNeue'" font-size="39.8594">k</text>
<g>
	<defs>
		<rect id="SVGID_7_" x="-358" y="-142.008" width="1241.008" height="809.008"/>
	</defs>
	<clipPath id="SVGID_8_">
		<use xlink:href="#SVGID_7_"  overflow="visible"/>
	</clipPath>
	<g clip-path="url(#SVGID_8_)">
		<text transform="matrix(0.8652 0.5014 -0.5014 0.8652 868.4355 234.9668)" font-family="'BebasNeue'" font-size="39.8594"> </text>
	</g>
	<g clip-path="url(#SVGID_8_)">
		<text transform="matrix(0.9116 0.4111 -0.4111 0.9116 883.375 243.2656)" font-family="'BebasNeue'" font-size="39.8594">y</text>
	</g>
	<g clip-path="url(#SVGID_8_)">
		<text transform="matrix(0.9553 0.2956 -0.2956 0.9553 908.3535 253.7256)" font-family="'BebasNeue'" font-size="39.8594">e</text>
	</g>
	<g clip-path="url(#SVGID_8_)">
		<text transform="matrix(0.9847 0.1745 -0.1745 0.9847 933.3828 260.7812)" font-family="'BebasNeue'" font-size="39.8594">a</text>
	</g>
	<g clip-path="url(#SVGID_8_)">
		<text transform="matrix(0.9989 0.0463 -0.0463 0.9989 960.6699 264.8906)" font-family="'BebasNeue'" font-size="39.8594">h</text>
	</g>
	<g clip-path="url(#SVGID_8_)">
		<text transform="matrix(0.9984 -0.0563 0.0563 0.9984 988.6348 265.3438)" font-family="'BebasNeue'" font-size="39.8594"> </text>
	</g>
	<g clip-path="url(#SVGID_8_)">
		<text transform="matrix(0.9878 -0.156 0.156 0.9878 1005.6582 264.0742)" font-family="'BebasNeue'" font-size="39.8594">g</text>
	</g>
	<g clip-path="url(#SVGID_8_)">
		<text transform="matrix(0.9612 -0.2758 0.2758 0.9612 1032.0391 259.1836)" font-family="'BebasNeue'" font-size="39.8594">e</text>
	</g>
	<g clip-path="url(#SVGID_8_)">
		<text transform="matrix(0.9215 -0.3885 0.3885 0.9215 1056.7256 251.3848)" font-family="'BebasNeue'" font-size="39.8594">t</text>
	</g>
	<g clip-path="url(#SVGID_8_)">
		<text transform="matrix(0.8791 -0.4766 0.4766 0.8791 1079.5117 240.9902)" font-family="'BebasNeue'" font-size="39.8594"> </text>
	</g>
	<g clip-path="url(#SVGID_8_)">
		<text transform="matrix(0.8277 -0.5612 0.5612 0.8277 1094.3467 232.5806)" font-family="'BebasNeue'" font-size="39.8594">s</text>
	</g>
	<g clip-path="url(#SVGID_8_)">
		<text transform="matrix(0.7528 -0.6582 0.6582 0.7528 1115.6406 217.3403)" font-family="'BebasNeue'" font-size="39.8594">o</text>
	</g>
	<g clip-path="url(#SVGID_8_)">
		<text transform="matrix(0.6543 -0.7562 0.7562 0.6543 1135.8311 198.8823)" font-family="'BebasNeue'" font-size="39.8594">m</text>
	</g>
	<g clip-path="url(#SVGID_8_)">
		<text transform="matrix(0.5452 -0.8383 0.8383 0.5452 1156.7041 173.1968)" font-family="'BebasNeue'" font-size="39.8594">e</text>
	</g>
	<g clip-path="url(#SVGID_8_)">
		<text transform="matrix(0.8265 0.5629 -0.5629 0.8265 890.0957 172.9561)" font-family="'BebasNeue'" font-size="21.1693">D</text>
	</g>
	<g clip-path="url(#SVGID_8_)">
		<text transform="matrix(0.8694 0.4942 -0.4942 0.8694 900.7529 179.9912)" font-family="'BebasNeue'" font-size="21.1694">e</text>
	</g>
	<g clip-path="url(#SVGID_8_)">
		<text transform="matrix(0.9072 0.4208 -0.4208 0.9072 911.1875 185.7559)" font-family="'BebasNeue'" font-size="21.1693">n</text>
	</g>
	<g clip-path="url(#SVGID_8_)">
		<text transform="matrix(0.9398 0.3418 -0.3418 0.9398 923.248 191.1416)" font-family="'BebasNeue'" font-size="21.1694">v</text>
	</g>
	<g clip-path="url(#SVGID_8_)">
		<text transform="matrix(0.9644 0.2646 -0.2646 0.9644 935.1699 195.2861)" font-family="'BebasNeue'" font-size="21.1693">e</text>
	</g>
	<g clip-path="url(#SVGID_8_)">
		<text transform="matrix(0.9827 0.1855 -0.1855 0.9827 946.7227 198.2939)" font-family="'BebasNeue'" font-size="21.1693">r</text>
	</g>
	<g clip-path="url(#SVGID_8_)">
		<text transform="matrix(0.9926 0.1214 -0.1214 0.9926 959.0215 200.3984)" font-family="'BebasNeue'" font-size="21.1693"> </text>
	</g>
	<g clip-path="url(#SVGID_8_)">
		<text transform="matrix(0.9978 0.067 -0.067 0.9978 966.1289 201.1943)" font-family="'BebasNeue'" font-size="21.1693">-</text>
	</g>
	<g clip-path="url(#SVGID_8_)">
		<text transform="matrix(0.9999 0.0162 -0.0162 0.9999 975.6719 201.6943)" font-family="'BebasNeue'" font-size="21.1693"> </text>
	</g>
	<g clip-path="url(#SVGID_8_)">
		<text transform="matrix(0.9988 -0.0496 0.0496 0.9988 982.9521 201.7446)" font-family="'BebasNeue'" font-size="21.1693">C</text>
	</g>
	<g clip-path="url(#SVGID_8_)">
		<text transform="matrix(0.9915 -0.1302 0.1302 0.9915 995.2227 200.9717)" font-family="'BebasNeue'" font-size="21.1693">o</text>
	</g>
	<g clip-path="url(#SVGID_8_)">
		<text transform="matrix(0.9783 -0.2073 0.2073 0.9783 1007.5908 199.1641)" font-family="'BebasNeue'" font-size="21.1693">l</text>
	</g>
	<g clip-path="url(#SVGID_8_)">
		<text transform="matrix(0.959 -0.2834 0.2834 0.959 1018.5938 196.6929)" font-family="'BebasNeue'" font-size="21.1693">o</text>
	</g>
	<g clip-path="url(#SVGID_8_)">
		<text transform="matrix(0.9321 -0.3622 0.3622 0.9321 1030.5527 192.98)" font-family="'BebasNeue'" font-size="21.1693">r</text>
	</g>
	<g clip-path="url(#SVGID_8_)">
		<text transform="matrix(0.8985 -0.439 0.439 0.8985 1042.2949 188.2324)" font-family="'BebasNeue'" font-size="21.1693">a</text>
	</g>
	<g clip-path="url(#SVGID_8_)">
		<text transform="matrix(0.8584 -0.513 0.513 0.8584 1053.6982 182.4663)" font-family="'BebasNeue'" font-size="21.1693">d</text>
	</g>
	<g clip-path="url(#SVGID_8_)">
		<text transform="matrix(0.813 -0.5823 0.5823 0.813 1064.5732 175.7607)" font-family="'BebasNeue'" font-size="21.1693">o</text>
	</g>
	<path clip-path="url(#SVGID_8_)" fill="#FFFFFF" d="M282.997,359.762c0,1.886-0.997,3.656-2.741,5.18
		c-3.543,3.097-10.166,5.18-17.753,5.18c-7.585,0-14.209-2.083-17.751-5.18c-1.745-1.523-2.743-3.294-2.743-5.18
		c0-5.72,9.176-10.359,20.495-10.359C273.822,349.402,282.997,354.042,282.997,359.762"/>
	<path clip-path="url(#SVGID_8_)" fill="#FFFFFF" d="M282.997,361.459v10.359c0,3.24-2.942,6.139-7.555,8.038
		c-3.528,1.457-8.033,2.325-12.939,2.325c-4.907,0-9.411-0.868-12.938-2.325c-4.612-1.899-7.556-4.798-7.556-8.038v-10.359
		c0,1.886,0.998,3.656,2.743,5.18c3.542,3.097,10.166,5.18,17.751,5.18c7.587,0,14.21-2.083,17.753-5.18
		C282,365.115,282.997,363.345,282.997,361.459"/>
</g>
<g>
	<g>
		<path fill="#FFFFFF" d="M84.315,323.886c1.498,4.586,0.379,6.979-3.177,8.3c-0.456,0.169-0.684,0.256-1.14,0.425
			c-2.555,0.949-6.071-1.82-6.071-1.82c-0.08,0.028-1.057,5.071-3.713,6.066c-0.814,0.305-1.22,0.457-2.034,0.762
			c-3.623,1.356-6.567-0.219-8.274-5.432c-1.008-3.079-1.489-4.639-2.407-7.8c9.902-2.877,14.852-4.314,24.754-7.191
			C83.04,319.905,83.452,321.243,84.315,323.886z M73.658,326.479c0.892,2.77,2.083,3.921,4.62,3.03
			c0.57-0.2,0.854-0.301,1.424-0.501c2.155-0.757,2.882-1.995,2.103-4.385c-0.429-1.314-0.638-1.976-1.048-3.307
			c-3.179,0.988-4.768,1.48-7.947,2.469C73.144,324.867,73.313,325.406,73.658,326.479z M62.388,331.362
			c0.882,2.692,2.355,3.523,4.611,2.725c0.861-0.305,1.292-0.456,2.153-0.761c2.708-0.959,3.118-2.645,2.137-5.673
			c-0.398-1.229-0.593-1.849-0.976-3.092c-3.671,1.142-5.507,1.712-9.179,2.854C61.624,329.005,61.875,329.794,62.388,331.362z"/>
		<path fill="#FFFFFF" d="M74.238,344.393c5.049-5.135,7.633-7.615,12.912-12.394c0.492,1.319,0.744,1.975,1.255,3.276
			c-4.012,3.653-5.985,5.53-9.867,9.384c5.43-0.167,8.131-0.317,13.496-0.751c0.513,1.145,0.772,1.712,1.3,2.842
			c-7.024,0.612-10.569,0.802-17.711,0.944c-3.383,1.5-5.075,2.25-8.458,3.75c-0.589-1.372-0.879-2.062-1.449-3.453
			C69.125,346.551,70.83,345.833,74.238,344.393z"/>
		<path fill="#FFFFFF" d="M86.404,364.482c-4.047,2.29-6.07,3.437-10.118,5.727c-0.702-1.283-1.048-1.93-1.732-3.232
			c9.079-4.934,13.617-7.401,22.694-12.336c0.601,1.146,0.906,1.717,1.523,2.846c-4.047,2.29-6.07,3.435-10.118,5.725
			c1.444,2.642,2.187,3.942,3.711,6.498c3.961-2.441,5.943-3.663,9.904-6.104c0.651,1.092,0.979,1.632,1.646,2.706
			c-8.711,5.574-13.068,8.363-21.78,13.938c-0.758-1.223-1.133-1.839-1.874-3.08c3.961-2.441,5.942-3.664,9.903-6.105
			C88.619,368.474,87.867,367.158,86.404,364.482z"/>
		<path fill="#FFFFFF" d="M100.305,372.286c3.295-2.184,6.549-1.765,8.982,1.744c2.456,3.541,1.71,6.737-1.432,9.143
			c-4.252,3.255-6.378,4.884-10.631,8.138c-3.113,2.382-6.629,2.076-9.43-1.962c-2.774-4.001-1.905-7.511,1.36-9.674
			C93.615,376.72,95.845,375.241,100.305,372.286z M90.908,382.621c-1.95,1.338-2.41,3.135-0.976,5.203
			c1.46,2.105,3.25,2.228,5.152,0.82c4.399-3.253,6.599-4.883,10.999-8.136c1.873-1.385,2.382-3.061,1.068-4.956
			c-1.291-1.862-3.05-1.989-4.97-0.672C97.672,377.976,95.417,379.526,90.908,382.621z"/>
		<path fill="#FFFFFF" d="M117.653,395.207c-0.693,0.624-1.039,0.936-1.732,1.56c-0.798-0.9-1.194-1.354-1.98-2.271
			c0.748-0.652,1.121-0.978,1.868-1.63c1.756-1.532,2.165-3.198,0.724-4.939c-1.416-1.71-3.144-1.641-4.951-0.169
			c-4.245,3.457-6.367,5.188-10.612,8.645c-1.808,1.472-2.188,3.269-0.616,5.168c1.601,1.934,3.384,1.83,5.141,0.297
			c1.015-0.886,1.521-1.329,2.536-2.215c0.817,0.953,1.23,1.427,2.061,2.363c-0.958,0.861-1.437,1.295-2.395,2.156
			c-2.916,2.624-6.338,2.733-9.407-0.978c-3.041-3.677-2.351-7.094,0.728-9.521c4.207-3.315,6.311-4.974,10.517-8.289
			c3.079-2.427,6.29-2.436,8.956,0.789C121.182,389.429,120.569,392.582,117.653,395.207z"/>
		<path fill="#FFFFFF" d="M116.79,406.648c-1.205,0.222-1.809,0.328-3.022,0.532c-2.514,2.405-3.772,3.608-6.286,6.014
			c-0.942-0.996-1.41-1.498-2.339-2.514c7.602-7.045,11.403-10.565,19.002-17.611c0.816,0.893,1.228,1.335,2.056,2.211
			c-3.615,3.461-5.423,5.191-9.038,8.651c5.722-1.233,8.538-1.946,14.063-3.549c0.868,0.847,1.306,1.267,2.187,2.096
			c-5.203,1.588-7.854,2.302-13.239,3.562c-1.905,6.109-2.767,9.215-4.302,15.517c-1.015-0.954-1.519-1.434-2.52-2.407
			C114.606,414.088,115.295,411.584,116.79,406.648z"/>
		<path fill="#FFFFFF" d="M135.107,419.254c-0.66,0.8-0.99,1.2-1.65,2c-2.151-1.77-3.212-2.676-5.308-4.532
			c-2.443,2.762-3.667,4.143-6.11,6.904c2.691,2.383,4.06,3.541,6.838,5.788c-0.663,0.816-0.995,1.224-1.658,2.04
			c-3.857-3.119-5.746-4.744-9.436-8.123c6.991-7.655,10.487-11.481,17.476-19.138c3.244,2.971,4.905,4.398,8.297,7.142
			c-0.663,0.816-0.996,1.224-1.659,2.04c-2.507-2.027-3.742-3.072-6.17-5.223c-2.345,2.651-3.517,3.978-5.862,6.629
			C131.934,416.613,132.983,417.507,135.107,419.254z"/>
		<path fill="#FFFFFF" d="M139.443,429.175c2.037-6.769,3.144-10.113,5.529-16.706c0.96,0.761,1.444,1.137,2.415,1.879
			c-1.8,5.036-2.652,7.581-4.255,12.716c4.448-3.061,6.633-4.635,10.918-7.86c0.914,0.634,1.372,0.945,2.293,1.564
			c-5.596,4.25-8.468,6.306-14.354,10.265c-2.182,3.009-3.273,4.514-5.456,7.522c-1.07-0.769-1.604-1.156-2.663-1.943
			C136.1,433.637,137.215,432.149,139.443,429.175z"/>
		<path fill="#FFFFFF" d="M167.914,427.922c3.566,2.024,3.988,4.918,2.128,8.368c-0.589,1.094-0.884,1.643-1.474,2.736
			c-1.948,3.613-4.838,4.559-8.733,2.341c-0.969-0.552-1.451-0.829-2.413-1.395c-2.101,3.502-3.153,5.252-5.254,8.754
			c-1.142-0.672-1.71-1.011-2.843-1.701c5.468-8.799,8.204-13.199,13.668-22C164.945,426.216,165.93,426.796,167.914,427.922z
			 M161.136,439.13c2.009,1.144,3.479,0.798,4.688-1.365c0.671-1.201,1.008-1.801,1.679-3.002c1.155-2.066,0.965-3.507-0.909-4.57
			c-0.986-0.56-1.478-0.843-2.456-1.418c-2.154,3.591-3.231,5.388-5.385,8.979C159.703,438.312,160.18,438.586,161.136,439.13z"/>
		<path fill="#FFFFFF" d="M163.158,454.752c4.8-9.173,7.201-13.758,11.998-22.933c1.033,0.526,1.551,0.786,2.592,1.296
			c-4.182,8.309-6.275,12.46-10.46,20.767c2.998,1.469,4.509,2.172,7.557,3.518c-0.435,0.955-0.652,1.434-1.087,2.389
			C169.468,457.895,167.347,456.887,163.158,454.752z"/>
		<path fill="#FFFFFF" d="M181.137,457.266c-1.222,1.751-1.839,2.622-3.082,4.362c-1.12-0.465-1.679-0.7-2.793-1.182
			c6.289-8.552,9.316-12.897,15.118-21.714c1.553,0.623,2.334,0.924,3.899,1.512c-1.89,10.335-2.708,15.538-4.071,26.003
			c-1.24-0.429-1.857-0.648-3.091-1.096c0.307-2.104,0.466-3.152,0.794-5.251C185.185,458.895,183.829,458.367,181.137,457.266z
			 M182.476,455.139c2.347,0.955,3.528,1.414,5.901,2.295c0.942-6.015,1.458-9.013,2.578-14.98
			C187.645,447.569,185.949,450.107,182.476,455.139z"/>
		<path fill="#FFFFFF" d="M198.529,459.245c-0.196-7.014-0.197-10.51-0.01-17.466c1.131,0.395,1.696,0.589,2.833,0.965
			c-0.121,5.31-0.126,7.972-0.031,13.312c3.205-4.325,4.759-6.515,7.762-10.938c1.051,0.299,1.578,0.444,2.633,0.729
			c-3.913,5.808-5.958,8.673-10.229,14.31c-1.105,3.536-1.66,5.304-2.765,8.84c-1.239-0.372-1.856-0.562-3.09-0.953
			C196.792,464.524,197.371,462.765,198.529,459.245z"/>
		<path fill="#FFFFFF" d="M220.234,459.622c-0.219,1.009-0.327,1.511-0.546,2.52c-2.654-0.551-3.977-0.848-6.612-1.484
			c-0.899,3.561-1.349,5.341-2.249,8.901c3.384,0.818,5.083,1.193,8.495,1.875c-0.214,1.024-0.321,1.539-0.535,2.563
			c-4.737-0.946-7.095-1.485-11.777-2.691c2.682-9.973,4.023-14.956,6.702-24.931c4.116,1.061,6.188,1.533,10.354,2.365
			c-0.214,1.024-0.321,1.537-0.535,2.562c-3.08-0.615-4.614-0.953-7.668-1.691c-0.862,3.419-1.295,5.129-2.158,8.547
			C216.309,458.786,217.615,459.078,220.234,459.622z"/>
		<path fill="#FFFFFF" d="M232.341,450.207c4.006,0.622,5.424,2.843,4.925,6.643c-0.109,0.833-0.165,1.25-0.274,2.083
			c-0.37,2.812-4.094,4.806-4.094,4.806c-0.014,0.101,3.102,3.053,2.742,5.792c-0.209,1.593-0.314,2.389-0.524,3.981
			c-0.149,1.132-0.249,2.195,0.18,3.138c-1.314-0.161-1.97-0.245-3.282-0.426c-0.269-0.78-0.337-1.458-0.085-3.172
			c0.236-1.604,0.355-2.404,0.59-4.008c0.423-2.88-0.901-3.988-3.453-4.396c-0.864-0.138-1.296-0.209-2.159-0.355
			c-0.774,4.339-1.162,6.51-1.937,10.849c-1.29-0.22-1.933-0.335-3.219-0.574c1.97-10.13,2.956-15.195,4.922-25.327
			C228.935,449.66,230.068,449.854,232.341,450.207z M229.613,462.09c2.403,0.383,3.949-0.155,4.355-2.926
			c0.144-0.977,0.215-1.468,0.359-2.444c0.337-2.297-0.339-3.606-2.481-3.939c-1.123-0.175-1.685-0.269-2.805-0.459
			c-0.67,3.759-1.004,5.639-1.675,9.397C228.264,461.872,228.714,461.946,229.613,462.09z"/>
		<path fill="#FFFFFF" d="M251.817,458.438c-0.016,0.279-0.023,0.42-0.039,0.699c-1.129-0.06-1.693-0.093-2.821-0.168
			c0.023-0.338,0.036-0.508,0.06-0.846c0.162-2.315-0.638-3.725-2.72-3.895c-2.083-0.17-3.109,1.093-3.34,3.365
			c-0.583,5.753,8.561,6.987,8.162,14.231c-0.214,3.897-2.494,6.356-6.968,5.989c-4.474-0.367-6.261-3.158-5.806-7.036
			c0.069-0.585,0.105-0.879,0.174-1.464c1.172,0.131,1.759,0.193,2.933,0.309c-0.066,0.645-0.1,0.969-0.167,1.613
			c-0.237,2.308,0.695,3.777,3.008,3.968c2.312,0.19,3.483-1.106,3.646-3.421c0.404-5.73-8.758-7.104-7.917-14.311
			c0.461-3.951,2.573-6.17,6.423-5.854C250.333,451.937,252.032,454.539,251.817,458.438z"/>
		<path fill="#FFFFFF" d="M269.635,464.414c0.037,1.045,0.058,1.567,0.095,2.612c-2.556,0.087-3.834,0.111-6.392,0.121
			c0.018,4.464,0.027,6.695,0.045,11.158c-1.308,0.005-1.961,0.004-3.268-0.01c0.117-10.31,0.174-15.463,0.289-25.774
			c4.097,0.044,6.146,0.011,10.239-0.158c0.046,1.045,0.067,1.567,0.113,2.612c-2.986,0.123-4.479,0.156-7.468,0.168
			c0.016,3.757,0.023,5.634,0.039,9.39C265.852,464.523,267.112,464.5,269.635,464.414z"/>
		<path fill="#FFFFFF" d="M273.04,458.482c-0.214-3.935,1.598-6.543,5.521-6.864c3.961-0.324,6.193,1.951,6.655,5.866
			c0.625,5.298,0.936,7.945,1.56,13.243c0.457,3.878-1.447,6.721-5.964,7.091c-4.475,0.366-6.838-2.127-7.05-6.024
			C273.474,466.469,273.33,463.808,273.04,458.482z M276.901,471.755c0.163,2.352,1.374,3.646,3.687,3.457
			c2.354-0.192,3.287-1.663,3.047-4.008c-0.555-5.423-0.83-8.134-1.386-13.557c-0.236-2.309-1.346-3.597-3.465-3.423
			c-2.082,0.171-2.991,1.624-2.83,3.938C276.333,463.601,276.523,466.317,276.901,471.755z"/>
		<path fill="#FFFFFF" d="M292.885,450.174c4.006-0.627,6.063,1.052,6.799,4.814c0.161,0.825,0.24,1.236,0.401,2.062
			c0.545,2.785-2.358,5.812-2.358,5.812c0.018,0.1,3.922,1.958,4.453,4.671c0.309,1.577,0.461,2.367,0.77,3.944
			c0.22,1.121,0.465,2.163,1.172,2.929c-1.302,0.247-1.954,0.364-3.26,0.592c-0.503-0.66-0.782-1.285-1.089-2.99
			c-0.287-1.596-0.431-2.393-0.718-3.988c-0.516-2.865-2.129-3.512-4.683-3.124c-0.865,0.132-1.297,0.194-2.163,0.316
			c0.646,4.359,0.97,6.54,1.615,10.899c-1.295,0.183-1.943,0.268-3.24,0.432c-1.354-10.226-2.033-15.337-3.391-25.563
			C289.475,450.69,290.612,450.529,292.885,450.174z M294.076,462.293c2.404-0.367,3.707-1.347,3.211-4.104
			c-0.175-0.972-0.265-1.459-0.439-2.431c-0.411-2.285-1.471-3.326-3.611-2.992c-1.123,0.175-1.684,0.259-2.809,0.418
			c0.56,3.776,0.837,5.665,1.396,9.44C292.726,462.497,293.176,462.431,294.076,462.293z"/>
		<path fill="#FFFFFF" d="M313.48,460.469c1.172,4.496,1.757,6.743,2.928,11.239c-1.271,0.317-1.905,0.472-3.18,0.77
			c-2.449-10.029-3.675-15.043-6.126-25.073c1.12-0.262,1.678-0.396,2.795-0.676c1.172,4.496,1.76,6.744,2.932,11.24
			c2.615-0.653,3.918-1.001,6.512-1.74c-1.323-4.456-1.985-6.683-3.31-11.139c1.107-0.315,1.658-0.479,2.762-0.811
			c3.094,9.858,4.643,14.786,7.734,24.644c-1.255,0.378-1.883,0.562-3.143,0.922c-1.322-4.456-1.985-6.682-3.309-11.138
			C317.449,459.456,316.13,459.808,313.48,460.469z"/>
		<path fill="#FFFFFF" d="M323.358,449.395c-1.236-3.75-0.162-6.728,3.564-8.038c3.762-1.323,6.527,0.3,7.999,3.968
			c1.991,4.964,2.984,7.445,4.976,12.409c1.458,3.634,0.353,6.873-3.937,8.382c-4.249,1.494-7.194-0.319-8.419-4.034
			C325.868,457.006,325.032,454.47,323.358,449.395z M330.577,461.251c0.773,2.232,2.289,3.175,4.485,2.402
			c2.236-0.786,2.756-2.448,1.909-4.654c-1.957-5.103-2.935-7.651-4.892-12.754c-0.833-2.172-2.246-3.135-4.259-2.427
			c-1.978,0.695-2.479,2.331-1.718,4.528C327.893,453.509,328.788,456.089,330.577,461.251z"/>
		<path fill="#FFFFFF" d="M348.379,439.515c0.411,0.836,0.617,1.254,1.028,2.09c-1.036,0.495-1.558,0.738-2.601,1.218
			c-0.424-0.896-0.636-1.343-1.06-2.238c-0.997-2.104-2.448-2.972-4.406-2.109c-1.924,0.847-2.267,2.504-1.339,4.638
			c2.18,5.015,3.271,7.522,5.45,12.537c0.929,2.135,2.491,3.01,4.628,2.069c2.175-0.958,2.517-2.674,1.52-4.778
			c-0.576-1.216-0.86-1.822-1.437-3.038c1.085-0.499,1.623-0.753,2.701-1.268c0.567,1.154,0.85,1.734,1.417,2.889
			c1.729,3.517,0.978,6.785-3.195,8.62c-4.135,1.818-7.097,0.185-8.604-3.43c-2.059-4.938-3.084-7.405-5.143-12.343
			c-1.507-3.614-0.778-6.663,2.848-8.258C343.847,434.504,346.65,435.998,348.379,439.515z"/>
		<path fill="#FFFFFF" d="M358.88,443.631c-0.098,1.205-0.151,1.81-0.266,3.017c1.624,3.073,2.437,4.608,4.061,7.682
			c-1.173,0.604-1.759,0.902-2.94,1.487c-4.695-9.225-7.046-13.837-11.743-23.062c1.038-0.515,1.555-0.775,2.586-1.307
			c2.337,4.42,3.509,6.627,5.845,11.047c0.286-5.771,0.331-8.641,0.248-14.336c1.026-0.579,1.54-0.872,2.558-1.468
			c0.142,5.387,0.129,8.101-0.06,13.561c5.271,3.564,7.987,5.278,13.563,8.541c-1.171,0.688-1.759,1.025-2.939,1.693
			C365.328,447.844,363.143,446.47,358.88,443.631z"/>
		<path fill="#FFFFFF" d="M375.683,429.875c0.586,0.854,0.88,1.28,1.466,2.135c-2.284,1.545-3.438,2.296-5.768,3.755
			c1.98,3.108,2.971,4.664,4.95,7.772c2.991-1.873,4.47-2.843,7.388-4.853c0.602,0.862,0.904,1.293,1.506,2.155
			c-4.052,2.79-6.116,4.118-10.306,6.648c-5.429-8.823-8.146-13.231-13.577-22.054c3.684-2.225,5.496-3.395,9.059-5.848
			c0.602,0.862,0.906,1.293,1.508,2.155c-2.634,1.813-3.968,2.69-6.668,4.381c1.9,2.984,2.849,4.475,4.749,7.459
			C372.289,432.142,373.428,431.4,375.683,429.875z"/>
		<path fill="#FFFFFF" d="M386.421,428.535c-5.955-3.844-8.867-5.838-14.542-9.975c0.996-0.7,1.494-1.057,2.479-1.775
			c4.347,3.135,6.56,4.66,11.063,7.629c-1.7-5.113-2.601-7.644-4.499-12.652c0.874-0.701,1.307-1.054,2.171-1.77
			c2.51,6.557,3.679,9.882,5.838,16.624c2.289,2.929,3.436,4.392,5.724,7.32c-1.045,0.812-1.571,1.216-2.627,2.009
			C389.785,432.981,388.664,431.499,386.421,428.535z"/>
		<path fill="#FFFFFF" d="M393.424,400.729c3.029-2.937,5.988-2.6,8.8,0.138c0.891,0.867,1.337,1.304,2.228,2.171
			c2.944,2.866,2.999,5.964-0.315,9.169c-0.824,0.797-1.237,1.193-2.071,1.976c2.79,2.986,4.187,4.48,6.977,7.467
			c-0.99,0.929-1.488,1.388-2.491,2.298c-6.956-7.687-10.437-11.528-17.395-19.214C390.885,403.163,391.738,402.362,393.424,400.729
			z M402.34,410.338c1.71-1.653,1.812-3.188,0.063-4.946c-0.972-0.977-1.46-1.462-2.432-2.438c-1.671-1.68-3.132-1.873-4.724-0.33
			c-0.838,0.812-1.259,1.214-2.107,2.011c2.861,3.062,4.292,4.59,7.153,7.652C401.117,411.514,401.526,411.125,402.34,410.338z"/>
		<path fill="#FFFFFF" d="M418.099,412.589c-7.515-7.138-11.272-10.704-18.788-17.841c0.825-0.88,1.233-1.322,2.047-2.219
			c6.854,6.303,10.282,9.453,17.137,15.756c2.343-2.583,3.49-3.908,5.738-6.614c0.802,0.679,1.202,1.02,2.004,1.698
			C423.073,407.178,421.445,409.022,418.099,412.589z"/>
		<path fill="#FFFFFF" d="M426.026,395.316c1.34,1.674,2.006,2.518,3.329,4.207c-0.799,1.012-1.201,1.512-2.014,2.507
			c-6.449-8.479-9.78-12.62-16.633-20.698c1.087-1.415,1.625-2.131,2.683-3.581c9.544,4.483,14.396,6.594,24.232,10.547
			c-0.803,1.171-1.21,1.753-2.029,2.905c-1.968-0.831-2.947-1.253-4.902-2.105C428.866,391.634,427.932,392.876,426.026,395.316z
			 M424.354,393.431c1.655-2.13,2.469-3.212,4.063-5.415c-5.604-2.446-8.38-3.716-13.883-6.34
			C418.528,386.31,420.491,388.66,424.354,393.431z"/>
		<path fill="#FFFFFF" d="M433.328,378c-6.938-1.479-10.367-2.321-17.127-4.212c0.735-1.066,1.102-1.604,1.821-2.688
			c5.167,1.409,7.776,2.055,13.042,3.231c-3.25-4.377-4.916-6.522-8.323-10.729c0.618-1.035,0.923-1.557,1.526-2.607
			c4.484,5.504,6.662,8.334,10.869,14.142c3.125,1.997,4.686,2.995,7.811,4.992c-0.747,1.207-1.126,1.804-1.89,2.992
			C437.966,381.072,436.42,380.049,433.328,378z"/>
		<path fill="#FFFFFF" d="M440.388,355.022c0.921,0.467,1.382,0.699,2.303,1.166c-1.353,2.763-2.05,4.123-3.486,6.8
			c3.214,1.785,4.819,2.678,8.033,4.463c1.844-3.437,2.732-5.191,4.444-8.764c0.938,0.466,1.407,0.699,2.346,1.165
			c-2.376,4.96-3.63,7.377-6.256,12.077c-8.948-5.174-13.423-7.757-22.371-12.93c2.309-4.133,3.41-6.259,5.5-10.62
			c0.938,0.466,1.408,0.699,2.347,1.165c-1.545,3.225-2.347,4.804-4.011,7.905c3.085,1.714,4.626,2.57,7.711,4.284
			C438.365,359.092,439.053,357.75,440.388,355.022z"/>
		<path fill="#FFFFFF" d="M434.855,339.57c1.821-4.337,4.418-5.48,7.986-4.083c0.782,0.307,1.172,0.46,1.954,0.767
			c2.642,1.035,3.472,5.682,3.472,5.682c0.081,0.032,3.921-2.839,6.494-1.831c1.496,0.586,2.246,0.88,3.742,1.466
			c1.063,0.416,2.074,0.764,3.125,0.482c-0.551,1.459-0.832,2.186-1.403,3.625c-0.845,0.131-1.533,0.056-3.135-0.604
			c-1.499-0.618-2.245-0.924-3.744-1.542c-2.691-1.11-4.171,0.142-5.344,2.896c-0.396,0.932-0.597,1.395-1.003,2.317
			c4.014,1.825,6.02,2.738,10.033,4.564c-0.607,1.38-0.913,2.064-1.539,3.426c-9.321-4.44-13.984-6.656-23.307-11.096
			C433.288,343.245,433.822,342.03,434.855,339.57z M445.662,345.249c1.103-2.594,1.041-4.459-1.549-5.527
			c-0.913-0.377-1.369-0.564-2.282-0.941c-2.146-0.885-3.633-0.406-4.607,1.912c-0.511,1.215-0.768,1.819-1.295,3.018
			c3.477,1.581,5.213,2.371,8.689,3.952C445.041,346.702,445.25,346.219,445.662,345.249z"/>
		<path fill="#FFFFFF" d="M448.688,318.965c0.269,0.078,0.399,0.113,0.668,0.191c-0.385,1.324-0.583,1.985-0.985,3.294
			c-0.323-0.101-0.485-0.149-0.809-0.25c-2.217-0.688-3.824-0.047-4.603,2.34s0.15,3.841,2.305,4.599
			c5.455,1.92,9.339-8.503,16.306-6.479c3.749,1.09,5.498,4.338,3.823,9.464s-4.943,6.534-8.602,5.169
			c-0.552-0.206-0.828-0.308-1.38-0.514c0.478-1.312,0.712-1.971,1.172-3.299c0.611,0.216,0.915,0.322,1.526,0.538
			c2.188,0.773,3.905,0.024,4.772-2.624c0.867-2.649-0.061-4.309-2.276-4.997c-5.486-1.705-9.529,8.618-16.33,6.087
			c-3.729-1.388-5.268-4.269-3.827-8.68C441.902,319.35,444.938,317.875,448.688,318.965z"/>
	</g>
</g>
</svg>
