<?xml version="1.0" encoding="utf-8"?>
<!-- Generator: Adobe Illustrator 16.2.1, SVG Export Plug-In . SVG Version: 6.00 Build 0)  -->
<!DOCTYPE svg PUBLIC "-//W3C//DTD SVG 1.1//EN" "http://www.w3.org/Graphics/SVG/1.1/DTD/svg11.dtd">
<svg version="1.1" id="Layer_1" xmlns="http://www.w3.org/2000/svg" xmlns:xlink="http://www.w3.org/1999/xlink" x="0px" y="0px"
	 width="258.701px" height="273.854px" viewBox="0 0 258.701 273.854" enable-background="new 0 0 258.701 273.854"
	 xml:space="preserve">
<rect x="-34.35" y="-22.789" display="none" width="328" height="309"/>
<path fill="#FFFFFF" d="M37.039,264.64c0,0,133.402-229.947,139.449-231.15c2.707-0.539,10.532-3.04,13.988-3.648
	c20.893-3.674,54.492-7.859,66.047-0.397c0,0,6.919,25.523-3.909,23.956c0,0-65.274-7.553-74.722,7.843L54.551,273.799
	C54.551,273.799,41.505,267.043,37.039,264.64z"/>
<g>
	<g>
		<g id="front_4_">
			<g>
				<g>
					<g>
						<g>
							<polygon fill="#FFFFFF" points="85.292,21.718 85.289,21.729 85.296,21.72 							"/>
						</g>
						<g>
							<path fill="#FFFFFF" d="M102.335,45.316c-2.271-5.354-3.317-11.119-5.733-16.415c-1.615-3.557-3.961-7.947-7.002-10.605
								c-2.619-2.291-6.062-1.882-9.17-1.063c-5.113,1.348-10.044,3.362-15.125,4.844c-11.964,3.482-24.102,6.359-36.189,9.46
								c-6.025,1.547-12.044,3.14-18.007,4.907c-2.348,0.697-4.734,1.275-7.083,1.965c-1.038,0.302-2.41,0.679-3.068,1.608
								c-2.638,3.678,0.878,10.051,2.191,13.712c2.519,7.025,5.034,14.126,8.797,20.656c3.58,6.227,8.155,11.729,13.702,16.398
								c2.309,1.948,7.689,6.646,10.737,3.699c1.669-1.619,7.821-12.131,10.009-15.118c4.41-6.029,9.326-11.671,15.406-16.129
								c11.942-8.75,25.74-13.209,40.056-17.025c0.126-0.035,0.222-0.093,0.3-0.161C102.363,45.898,102.469,45.64,102.335,45.316z"
								/>
						</g>
						<g>
							<polygon fill="#FFFFFF" points="40.655,86.6 40.653,86.608 40.655,86.6 							"/>
						</g>
						<g>
							<polygon fill="#FFFFFF" points="87.36,25.353 87.359,25.359 87.362,25.353 							"/>
						</g>
					</g>
					<g>
						<g>
							<path fill="#FFFFFF" d="M199.095,251.142c-2.666-4.642-35.699-61.008-62.078-112.421
								c-22.037-42.944-40.339-87.1-40.63-87.749c-0.793,0.221-8.84,2.59-9.957,3.05c-0.403,0.171-6.106,3.816-7.9,5.104
								c4.596,11.542,26.926,61.979,34.689,75.208c14.01,23.875,63.841,121.462,67.955,128.707
								c4.954,8.721,16.465,12.783,19.194,9.886C208.978,263.786,204.011,259.693,199.095,251.142z"/>
						</g>
					</g>
				</g>
				<g>
					<g>
						<path fill="#FFFFFF" d="M82.413,13.47C81.161,8.357,79.38,2.03,77.033,0.568c-0.379-0.232-1.185-0.515-2.692-0.553
							c-4.643-0.559-11.71,14.088-11.377,21.348C63.277,21.226,81.421,13.799,82.413,13.47z"/>
					</g>
				</g>
			</g>
		</g>
		<line fill="none" x1="19.601" y1="29.095" x2="18.529" y2="29.698"/>
	</g>
</g>
</svg>
